# xmcd CD database file
#
# Track frame offsets:
#	150
#	11091
#	30443
#	46829
#	60710
#	72119
#	81188
#	91450
#	110509
#	122506
#
# Disc length: 1870 seconds
#
# Revision: 0
# Processed by: cddbd v1.5.2PL0 Copyright (c) Steve Scherf et al.
# Submitted via: CDex 1.51
#
DISCID=78074c0a
DTITLE=Mickey Gilley and Friends - Celebrate A Country Christmas
DYEAR=1900
DGENRE=Country
TTITLE0=01-Jingle Bells
TTITLE1=02-Silent Night
TTITLE2=03-Pretty Paper
TTITLE3=04-Away in the Manger
TTITLE4=05-Deck the Halls
TTITLE5=06-We Wish You A Merry Christmas
TTITLE6=07-I Heard the Bells of Chrismas Day
TTITLE7=08-O Little Town of Bethlehem
TTITLE8=09-Joy to the World
TTITLE9=10-The Little Drummer Boy
EXTD=
EXTT0=
EXTT1=
EXTT2=
EXTT3=
EXTT4=
EXTT5=
EXTT6=
EXTT7=
EXTT8=
EXTT9=
PLAYORDER=
